<svg width="24" height="21" viewBox="0 0 24 21" fill="none" xmlns="http://www.w3.org/2000/svg">
<path d="M23.1783 18.3175H14.8963C14.4424 18.3175 14.0746 17.9497 14.0746 17.4958C14.0746 17.042 14.4424 16.6742 14.8963 16.6742H23.178C23.6319 16.6742 23.9997 17.042 23.9997 17.4958C23.9997 17.9497 23.6321 18.3175 23.1783 18.3175Z" fill="#E3E3E3"/>
<path d="M12.9043 20.3096C11.3529 20.3096 10.0908 19.0475 10.0908 17.4961C10.0908 15.9445 11.3529 14.6824 12.9043 14.6824C14.4559 14.6824 15.718 15.9445 15.718 17.4961C15.718 19.0472 14.4559 20.3096 12.9043 20.3096ZM12.9043 16.3255C12.259 16.3255 11.7342 16.8506 11.7342 17.4958C11.7342 18.1409 12.2592 18.6659 12.9043 18.6659C13.5496 18.6659 14.0746 18.1409 14.0746 17.4958C14.0746 16.8506 13.5496 16.3255 12.9043 16.3255Z" fill="#E3E3E3"/>
<path d="M10.9122 18.3175H0.821683C0.36784 18.3175 0 17.9497 0 17.4958C0 17.042 0.36784 16.6742 0.821683 16.6742H10.9125C11.3663 16.6742 11.7342 17.042 11.7342 17.4958C11.7342 17.9497 11.3661 18.3175 10.9122 18.3175Z" fill="#E3E3E3"/>
<path d="M23.1783 10.9763H7.34997C6.89613 10.9763 6.52829 10.6085 6.52829 10.1546C6.52829 9.7008 6.89613 9.33296 7.34997 9.33296H23.1783C23.6322 9.33296 24 9.7008 24 10.1546C24 10.6085 23.6322 10.9763 23.1783 10.9763Z" fill="#E3E3E3"/>
<path d="M5.35794 12.9684C3.80633 12.9684 2.54422 11.7063 2.54422 10.1546C2.54422 8.60303 3.80633 7.34093 5.35794 7.34093C6.90955 7.34093 8.17166 8.60303 8.17166 10.1546C8.17166 11.7063 6.90928 12.9684 5.35794 12.9684ZM5.35794 8.98429C4.71264 8.98429 4.18759 9.50935 4.18759 10.1546C4.18759 10.7999 4.71264 11.325 5.35794 11.325C6.00323 11.325 6.52829 10.7999 6.52829 10.1546C6.52829 9.50935 6.00296 8.98429 5.35794 8.98429Z" fill="#E3E3E3"/>
<path d="M3.36589 10.9763H0.821683C0.36784 10.9763 0 10.6085 0 10.1546C0 9.7008 0.36784 9.33296 0.821683 9.33296H3.36589C3.81973 9.33296 4.18757 9.7008 4.18757 10.1546C4.18757 10.6085 3.81946 10.9763 3.36589 10.9763Z" fill="#E3E3E3"/>
<path d="M15.4611 3.6354H0.821683C0.36784 3.6354 0 3.26756 0 2.81372C0 2.35988 0.36784 1.99203 0.821683 1.99203H15.4611C15.9149 1.99203 16.2828 2.35988 16.2828 2.81372C16.2828 3.26756 15.9149 3.6354 15.4611 3.6354Z" fill="#E3E3E3"/>
<path d="M17.4528 5.62743C15.9015 5.62743 14.6394 4.36533 14.6394 2.81372C14.6394 1.26211 15.9015 0 17.4528 0C19.0045 0 20.2666 1.26211 20.2666 2.81372C20.2666 4.36533 19.0045 5.62743 17.4528 5.62743ZM17.4528 1.64337C16.8078 1.64337 16.2828 2.16842 16.2828 2.81372C16.2828 3.45901 16.8078 3.98407 17.4528 3.98407C18.0981 3.98407 18.6232 3.45901 18.6232 2.81372C18.6232 2.16842 18.0984 1.64337 17.4528 1.64337Z" fill="#E3E3E3"/>
<path d="M23.1783 3.6354H19.4452C18.9913 3.6354 18.6235 3.26756 18.6235 2.81372C18.6235 2.35988 18.9913 1.99203 19.4452 1.99203H23.1783C23.6322 1.99203 24 2.35988 24 2.81372C24 3.26756 23.6322 3.6354 23.1783 3.6354Z" fill="#E3E3E3"/>
</svg>
